<svg xmlns="http://www.w3.org/2000/svg" width="375.05682373046875" height="389.5998840332031" viewBox="-91.24528503417969 -82.53265380859375 375.05682373046875 389.5998840332031"><title>Neo4j Graph Visualization</title><desc>Created using Neo4j (http://www.neo4j.com/)</desc><g class="layer relationships"><g class="relationship" transform="translate(89.57044479562386 91.08667894446779) rotate(398.8246145322273)"><path class="outline" fill="#A5ABB6" stroke="none" d="M 25 0.5 L 36.25119520828425 0.5 L 36.25119520828425 -0.5 L 25 -0.5 Z M 65.80197645828426 0.5 L 77.0531716665685 0.5 L 77.0531716665685 3.5 L 84.0531716665685 0 L 77.0531716665685 -3.5 L 77.0531716665685 -0.5 L 65.80197645828426 -0.5 Z"/><text text-anchor="middle" pointer-events="none" font-size="8px" fill="#000000" x="51.02658583328425" y="3" font-family="sans-serif">FROM</text></g><g class="relationship" transform="translate(174.53035759925191 159.45631743216185) rotate(401.28357143609253)"><path class="outline" fill="#A5ABB6" stroke="none" d="M 25 0.5 L 41.434829366198116 0.5 L 41.434829366198116 -0.5 L 25 -0.5 Z M 58.399673116198116 0.5 L 74.83450248239623 0.5 L 74.83450248239623 3.5 L 81.83450248239623 0 L 74.83450248239623 -3.5 L 74.83450248239623 -0.5 L 58.399673116198116 -0.5 Z"/><text text-anchor="middle" pointer-events="none" font-size="8px" fill="#000000" x="49.917251241198116" y="3" font-family="sans-serif">TO</text></g><g class="relationship" transform="translate(89.57044479562386 91.08667894446779) rotate(303.1636310466171)"><path class="outline" fill="#A5ABB6" stroke="none" d="M 25 0.5 L 37.704346475423534 0.5 L 37.704346475423534 -0.5 L 25 -0.5 Z M 67.25512772542353 0.5 L 79.95947420084707 0.5 L 79.95947420084707 3.5 L 86.95947420084707 0 L 79.95947420084707 -3.5 L 79.95947420084707 -0.5 L 67.25512772542353 -0.5 Z"/><text text-anchor="middle" pointer-events="none" font-size="8px" fill="#000000" x="52.479737100423534" y="3" font-family="sans-serif">FROM</text></g><g class="relationship" transform="translate(150.8158565715097 -2.635908513051344) rotate(341.09529688169096)"><path class="outline" fill="#A5ABB6" stroke="none" d="M 25 0.5 L 41.87857413184947 0.5 L 41.87857413184947 -0.5 L 25 -0.5 Z M 58.84341788184947 0.5 L 75.72199201369894 0.5 L 75.72199201369894 3.5 L 82.72199201369894 0 L 75.72199201369894 -3.5 L 75.72199201369894 -0.5 L 58.84341788184947 -0.5 Z"/><text text-anchor="middle" pointer-events="none" font-size="8px" fill="#000000" x="50.36099600684947" y="3" font-family="sans-serif">TO</text></g><g class="relationship" transform="translate(-62.24528456719405 -53.53265642836623) rotate(414.9047990473482)"><path class="outline" fill="#A5ABB6" stroke="none" d="M 25 0.5 L 33.98723716935232 0.5 L 33.98723716935232 -0.5 L 25 -0.5 Z M 63.53801841935232 0.5 L 72.52525558870464 0.5 L 72.52525558870464 3.5 L 79.52525558870464 0 L 72.52525558870464 -3.5 L 72.52525558870464 -0.5 L 63.53801841935232 -0.5 Z"/><text text-anchor="middle" pointer-events="none" font-size="8px" fill="#000000" x="48.76262779435232" y="3" font-family="sans-serif">FROM</text></g><g class="relationship" transform="translate(-2.1498767027225734 31.98968573721556) rotate(392.79438525907796)"><path class="outline" fill="#A5ABB6" stroke="none" d="M 25 0.5 L 42.57276115534563 0.5 L 42.57276115534563 -0.5 L 25 -0.5 Z M 59.53760490534563 0.5 L 77.11036606069126 0.5 L 77.11036606069126 3.5 L 84.11036606069126 0 L 77.11036606069126 -3.5 L 77.11036606069126 -0.5 L 59.53760490534563 -0.5 Z"/><text text-anchor="middle" pointer-events="none" font-size="8px" fill="#000000" x="51.05518303034563" y="3" font-family="sans-serif">TO</text></g><g class="relationship" transform="translate(-11.447141905703345 278.06722571129285) rotate(284.12844272837657)"><path class="outline" fill="#A5ABB6" stroke="none" d="M 25 0.5 L 35.13659148133828 0.5 L 35.13659148133828 -0.5 L 25 -0.5 Z M 64.68737273133829 0.5 L 74.82396421267656 0.5 L 74.82396421267656 3.5 L 81.82396421267656 0 L 74.82396421267656 -3.5 L 74.82396421267656 -0.5 L 64.68737273133829 -0.5 Z"/><text text-anchor="middle" pointer-events="none" font-size="8px" fill="#000000" x="49.91198210633828" y="3" font-family="sans-serif">FROM</text></g><g class="relationship" transform="translate(14.628207988261796 174.4745838006895) rotate(311.94661452448986)"><path class="outline" fill="#A5ABB6" stroke="none" d="M 25 0.5 L 44.07531963766044 0.5 L 44.07531963766044 -0.5 L 25 -0.5 Z M 61.04016338766044 0.5 L 80.11548302532088 0.5 L 80.11548302532088 3.5 L 87.11548302532088 0 L 80.11548302532088 -3.5 L 80.11548302532088 -0.5 L 61.04016338766044 -0.5 Z"/><text text-anchor="middle" pointer-events="none" font-size="8px" fill="#000000" x="52.55774151266044" y="3" font-family="sans-serif">TO</text></g></g><g class="layer nodes"><g class="node" transform="translate(89.57044479562386,91.08667894446779)"><circle class="outline" cx="0" cy="0" r="25" fill="#D9C8AE" stroke="#c0a378" stroke-width="2px"/><text text-anchor="middle" pointer-events="none" font-family="sans-serif" dy="1.5625" font-size="25" fill="#604A0E"/><text text-anchor="middle" pointer-events="none" y="5" font-size="10px" fill="#604A0E" font-family="sans-serif"> my_gree…</text></g><g class="node" transform="translate(174.53035759925191,159.45631743216185)"><circle class="outline" cx="0" cy="0" r="25" fill="#D9C8AE" stroke="#c0a378" stroke-width="2px"/><text text-anchor="middle" pointer-events="none" font-family="sans-serif" dy="1.5625" font-size="25" fill="#604A0E"/><text text-anchor="middle" pointer-events="none" y="5" font-size="10px" fill="#604A0E" font-family="sans-serif"> Inherits_…</text></g><g class="node" transform="translate(254.81150201849158,229.94425094846173)"><circle class="outline" cx="0" cy="0" r="25" fill="#D9C8AE" stroke="#c0a378" stroke-width="2px"/><text text-anchor="middle" pointer-events="none" font-family="sans-serif" dy="1.5625" font-size="25" fill="#604A0E"/><text text-anchor="middle" pointer-events="none" y="5" font-size="10px" fill="#604A0E" font-family="sans-serif"> Greeting</text></g><g class="node" transform="translate(150.8158565715097,-2.635908513051344)"><circle class="outline" cx="0" cy="0" r="25" fill="#D9C8AE" stroke="#c0a378" stroke-width="2px"/><text text-anchor="middle" pointer-events="none" font-family="sans-serif" dy="1.5625" font-size="25" fill="#604A0E"/><text text-anchor="middle" pointer-events="none" y="5" font-size="10px" fill="#604A0E" font-family="sans-serif"> Inherits_…</text></g><g class="node" transform="translate(252.72719150523946,-37.53730354855915)"><circle class="outline" cx="0" cy="0" r="25" fill="#D9C8AE" stroke="#c0a378" stroke-width="2px"/><text text-anchor="middle" pointer-events="none" font-family="sans-serif" dy="1.5625" font-size="25" fill="#604A0E"/><text text-anchor="middle" pointer-events="none" y="5" font-size="10px" fill="#604A0E" font-family="sans-serif"> Instantia…</text></g><g class="node" transform="translate(-62.24528456719405,-53.53265642836623)"><circle class="outline" cx="0" cy="0" r="25" fill="#D9C8AE" stroke="#c0a378" stroke-width="2px"/><text text-anchor="middle" pointer-events="none" font-family="sans-serif" dy="1.5625" font-size="25" fill="#604A0E"/><text text-anchor="middle" pointer-events="none" y="5" font-size="10px" fill="#604A0E" font-family="sans-serif"> TheSpe…</text></g><g class="node" transform="translate(-2.1498767027225734,31.98968573721556)"><circle class="outline" cx="0" cy="0" r="25" fill="#D9C8AE" stroke="#c0a378" stroke-width="2px"/><text text-anchor="middle" pointer-events="none" font-family="sans-serif" dy="1.5625" font-size="25" fill="#604A0E"/><text text-anchor="middle" pointer-events="none" y="5" font-size="10px" fill="#604A0E" font-family="sans-serif"> AgentOf</text></g><g class="node" transform="translate(-11.447141905703345,278.06722571129285)"><circle class="outline" cx="0" cy="0" r="25" fill="#D9C8AE" stroke="#c0a378" stroke-width="2px"/><text text-anchor="middle" pointer-events="none" font-family="sans-serif" dy="1.5625" font-size="25" fill="#604A0E"/><text text-anchor="middle" pointer-events="none" y="5" font-size="10px" fill="#604A0E" font-family="sans-serif"> TheWorld</text></g><g class="node" transform="translate(14.628207988261796,174.4745838006895)"><circle class="outline" cx="0" cy="0" r="25" fill="#D9C8AE" stroke="#c0a378" stroke-width="2px"/><text text-anchor="middle" pointer-events="none" font-family="sans-serif" dy="1.5625" font-size="25" fill="#604A0E"/><text text-anchor="middle" pointer-events="none" y="5" font-size="10px" fill="#604A0E" font-family="sans-serif"> Recipien…</text></g></g></svg>